<svg width="83" height="79" viewBox="0 0 83 79" fill="none" xmlns="http://www.w3.org/2000/svg">
<g clip-path="url(#clip0_3_5)">
<path d="M34.274 7.54765L36.0694 10.5883C37.736 13.4109 38.2131 16.7799 37.3957 19.9541C36.5783 23.1284 34.5334 25.848 31.7109 27.5146L30.1905 28.4123L31.0882 29.9326L38.6899 25.4442L44.9738 36.0866C45.45 36.893 45.5863 37.8556 45.3527 38.7625C45.1192 39.6694 44.5349 40.4465 43.7285 40.9226L31.5658 48.1042C30.7593 48.5804 29.7968 48.7167 28.8898 48.4831C27.9829 48.2496 27.2058 47.6653 26.7297 46.8589L20.4458 36.2165L28.0475 31.728L25.3545 27.167C23.6879 24.3445 23.2108 20.9755 24.0282 17.8012C24.8456 14.6269 26.8905 11.9073 29.713 10.2407L34.274 7.54765ZM9.81101 19.9416C11.6345 18.8629 13.6905 18.2381 15.8059 18.1199C17.9212 18.0016 20.034 18.3933 21.9664 19.2621C21.6065 22.3217 22.2627 25.4148 23.8341 28.0647L24.7318 29.585L23.9716 30.0339C20.9475 31.8195 17.3379 32.3307 13.9368 31.4549C10.5358 30.5791 7.62198 28.3882 5.83635 25.364L4.48981 23.0835L9.81101 19.9416Z" fill="#05F0A5"/>
</g>
<path fill-rule="evenodd" clip-rule="evenodd" d="M66.7329 14.5432L60.2814 16.482L64.5781 27.7187C67.1673 27.0845 69.9009 27.4608 72.2224 28.7711C74.5439 30.0814 76.2788 32.2272 77.0739 34.7716C77.869 37.316 77.6646 40.0678 76.5023 42.4668C75.34 44.8658 73.3071 46.7317 70.8175 47.6846C68.3279 48.6375 65.5687 48.6059 63.1016 47.5961C60.6345 46.5863 58.645 44.6742 57.538 42.2492C56.431 39.8241 56.2898 37.0684 57.1431 34.5429C57.9964 32.0174 59.7801 29.912 62.1311 28.6553L59.9723 23.0094L52.5291 38.4695C52.4218 38.6916 52.254 38.8789 52.045 39.0098C51.8359 39.1408 51.5942 39.21 51.3475 39.2096H46.0265C45.6903 41.8522 44.3604 44.2675 42.3073 45.9648C40.2541 47.6621 37.6317 48.5138 34.9731 48.347C32.3145 48.1802 29.8191 47.0073 27.9942 45.0668C26.1693 43.1262 25.1518 40.5635 25.1485 37.8997C25.1465 35.2326 26.1615 32.665 27.9867 30.7203C29.812 28.7755 32.31 27.5998 34.9719 27.4328C37.6338 27.2658 40.2592 28.12 42.3131 29.8214C44.3671 31.5228 45.6951 33.9433 46.0265 36.5897H49.3014L42.9088 18.6905C42.8584 18.5493 42.8327 18.4004 42.8329 18.2504H40.8679C40.5205 18.2504 40.1873 18.1124 39.9416 17.8667C39.696 17.6211 39.558 17.2879 39.558 16.9404C39.558 16.593 39.696 16.2598 39.9416 16.0142C40.1873 15.7685 40.5205 15.6305 40.8679 15.6305H46.7627C47.1101 15.6305 47.4433 15.7685 47.689 16.0142C47.9347 16.2598 48.0727 16.593 48.0727 16.9404C48.0727 17.2879 47.9347 17.6211 47.689 17.8667C47.4433 18.1124 47.1101 18.2504 46.7627 18.2504H45.534L47.9469 25.0058L58.5929 19.4031L57.3288 16.0981C57.2644 15.9298 57.2355 15.7501 57.2438 15.5701C57.2521 15.3901 57.2974 15.2137 57.377 15.0521C57.4565 14.8904 57.5686 14.7469 57.7061 14.6305C57.8436 14.5141 58.0037 14.4273 58.1763 14.3756L65.9797 12.0347L66.7329 14.5432ZM48.8364 27.4987L51.4196 34.7296L56.9607 23.223L48.8364 27.4987ZM65.8435 38.3673L63.0755 31.1272C61.3782 32.1286 60.119 33.7311 59.5474 35.6172C58.9759 37.5032 59.1337 39.5351 59.9897 41.3103C60.8456 43.0854 62.3372 44.4743 64.1688 45.2015C66.0004 45.9288 68.0385 45.9415 69.879 45.237C71.7195 44.5325 73.2282 43.1623 74.1061 41.3979C74.984 39.6335 75.1671 37.6037 74.619 35.7107C74.0709 33.8177 72.8317 32.1997 71.1469 31.1773C69.4621 30.1549 67.4547 29.8028 65.5225 30.1906L68.2905 37.432C68.4089 37.7553 68.3953 38.1121 68.2526 38.4254C68.11 38.7387 67.8497 38.9833 67.5281 39.1062C67.2066 39.2291 66.8495 39.2205 66.5343 39.0822C66.219 38.944 65.9709 38.6871 65.8435 38.3673ZM43.3791 36.5897H35.6281C35.2807 36.5897 34.9475 36.7277 34.7018 36.9734C34.4562 37.2191 34.3182 37.5522 34.3182 37.8997C34.3182 38.2471 34.4562 38.5803 34.7018 38.8259C34.9475 39.0716 35.2807 39.2096 35.6281 39.2096H43.3791C43.0454 41.1484 41.997 42.8917 40.4408 44.0953C38.8846 45.2989 36.9337 45.8753 34.9733 45.7108C33.0128 45.5463 31.1853 44.6528 29.8514 43.2067C28.5176 41.7606 27.7743 39.867 27.7684 37.8997C27.7666 35.9277 28.5062 34.0271 29.8403 32.5749C31.1745 31.1228 33.0058 30.2252 34.9709 30.0603C36.936 29.8954 38.8912 30.4752 40.4488 31.6847C42.0063 32.8942 43.0522 34.645 43.3791 36.5897Z" fill="#FCFDFF"/>
<path d="M23.1323 52.6798C24.8751 52.6798 26.2534 53.1184 27.2672 53.9955C28.281 54.8612 28.7879 56.1028 28.7879 57.7203H25.1827C25.1827 57.0368 25.0004 56.4958 24.6359 56.0971C24.2828 55.6984 23.7759 55.4991 23.1152 55.4991C22.352 55.4991 21.7882 55.7383 21.4237 56.2167C21.0706 56.6951 20.894 57.3615 20.894 58.2158V59.3093C20.894 60.1522 21.0706 60.8186 21.4237 61.3084C21.7882 61.7868 22.3407 62.026 23.0811 62.026C23.8101 62.026 24.3625 61.8381 24.7384 61.4622C25.1143 61.0863 25.3023 60.5566 25.3023 59.8732H28.7879C28.7879 61.4793 28.2924 62.7095 27.3014 63.5638C26.3218 64.4181 24.9321 64.8453 23.1323 64.8453C21.1275 64.8453 19.6068 64.3327 18.5703 63.3075C17.5451 62.2823 17.0325 60.7674 17.0325 58.7626C17.0325 56.7578 17.5451 55.2428 18.5703 54.2176C19.6068 53.1924 21.1275 52.6798 23.1323 52.6798ZM44.3303 54.5593V52.2527H47.7305V54.5593H44.3303ZM44.3303 64.6403V55.6187H47.7305V64.6403H44.3303ZM56.3507 55.6187H60.3147L56.9829 59.2581L60.4001 64.6403H56.5386L54.642 61.5476L53.4631 62.6924V64.6403H50.0629V52.2356H53.4631V59.0701L56.3507 55.6187ZM65.7022 55.4136C67.3539 55.4136 68.6126 55.8009 69.4783 56.5755C70.3554 57.3501 70.794 58.5347 70.794 60.1295V60.7104H64.0278C64.0278 61.3597 64.1702 61.8495 64.4549 62.1798C64.7511 62.5102 65.2124 62.6753 65.8389 62.6753C66.4085 62.6753 66.8242 62.5557 67.0862 62.3165C67.3596 62.0773 67.4963 61.7584 67.4963 61.3597H70.794C70.794 62.4532 70.3782 63.3075 69.5467 63.9226C68.7151 64.5377 67.502 64.8453 65.9073 64.8453C64.2328 64.8453 62.9343 64.458 62.0116 63.6834C61.0889 62.8975 60.6276 61.7128 60.6276 60.1295C60.6276 58.5803 61.0775 57.407 61.9774 56.6097C62.8773 55.8123 64.1189 55.4136 65.7022 55.4136ZM65.8389 57.5836C64.7682 57.5836 64.1702 58.0905 64.0449 59.1043H67.3596C67.3596 58.6373 67.2229 58.2671 66.9495 57.9937C66.6876 57.7203 66.3174 57.5836 65.8389 57.5836ZM76.8851 55.4136C78.0926 55.4136 79.112 55.6528 79.9436 56.1313C80.7865 56.5983 81.208 57.3273 81.208 58.3183H78.047C78.047 57.988 77.8989 57.7545 77.6027 57.6178C77.3977 57.5039 77.1414 57.4469 76.8339 57.4469C76.0137 57.4469 75.6036 57.6406 75.6036 58.0278C75.6036 58.2443 75.746 58.3981 76.0308 58.4892C76.3156 58.5803 76.7826 58.6771 77.4319 58.7796C78.2292 58.8936 78.8956 59.0302 79.431 59.1897C79.9664 59.3378 80.4334 59.6112 80.8321 60.0099C81.2307 60.3972 81.4301 60.9439 81.4301 61.6502C81.4301 62.8006 80.9972 63.6208 80.1315 64.1106C79.2772 64.6004 78.1552 64.8453 76.7655 64.8453C75.9681 64.8453 75.2164 64.7371 74.5101 64.5207C73.8039 64.2928 73.2286 63.9454 72.7844 63.4784C72.3402 63.0114 72.118 62.419 72.118 61.7014H75.279V61.7698C75.2904 62.157 75.4499 62.4304 75.7574 62.5899C76.0764 62.738 76.4124 62.812 76.7655 62.812C77.711 62.812 78.1837 62.5899 78.1837 62.1457C78.1837 61.9178 78.0356 61.7527 77.7394 61.6502C77.4433 61.5476 76.9592 61.4394 76.2871 61.3255C75.4783 61.1888 74.812 61.0407 74.288 60.8813C73.7754 60.7218 73.3255 60.4541 72.9382 60.0782C72.5509 59.6909 72.3572 59.1555 72.3572 58.4721C72.3572 57.3672 72.773 56.5812 73.6045 56.1142C74.4475 55.6472 75.541 55.4136 76.8851 55.4136Z" fill="#FCFDFF"/>
<path d="M38.8145 52.8849C39.4068 52.8849 39.9479 53.0102 40.4377 53.2608C40.9389 53.5 41.3319 53.8417 41.6167 54.2859C41.9128 54.7302 42.0609 55.2257 42.0609 55.7725C42.0609 57.2191 41.4059 58.1304 40.096 58.5063V58.5746C41.5882 58.9163 42.3343 59.896 42.3343 61.5135C42.3343 62.1286 42.1805 62.6753 41.873 63.1537C41.5768 63.6208 41.1667 63.9853 40.6427 64.2473C40.1188 64.5093 39.5435 64.6403 38.917 64.6403H30.989V52.8849H38.8145ZM34.765 57.464H37.3622C37.6128 57.464 37.8178 57.3786 37.9773 57.2077C38.1481 57.0254 38.2336 56.8033 38.2336 56.5413V56.3705C38.2336 56.1199 38.1481 55.9091 37.9773 55.7383C37.8064 55.556 37.6014 55.4649 37.3622 55.4649H34.765V57.464ZM34.765 61.9064H37.6355C37.8861 61.9064 38.0912 61.821 38.2507 61.6502C38.4215 61.4679 38.5069 61.2458 38.5069 60.9838V60.8129C38.5069 60.5509 38.4215 60.3345 38.2507 60.1636C38.0912 59.9814 37.8861 59.8903 37.6355 59.8903H34.765V61.9064Z" fill="#05F0A5"/>
<defs>
<clipPath id="clip0_3_5">
<rect width="42.3741" height="21.187" fill="white" transform="translate(0.151062 21.5446) rotate(-30.5599)"/>
</clipPath>
</defs>
</svg>
