<svg width="56" height="55" viewBox="0 0 56 55" fill="none" xmlns="http://www.w3.org/2000/svg">
<g clip-path="url(#clip0_3_15)">
<path d="M23.2715 5.14737L24.496 7.22109C25.6326 9.14604 25.9579 11.4437 25.4005 13.6085C24.843 15.7733 23.4484 17.6281 21.5235 18.7646L20.4866 19.3769L21.0989 20.4137L26.2832 17.3526L30.5687 24.6106C30.8934 25.1606 30.9864 25.8171 30.8271 26.4356C30.6678 27.0541 30.2694 27.5841 29.7194 27.9088L21.4245 32.8066C20.8745 33.1313 20.2181 33.2243 19.5996 33.065C18.981 32.9057 18.4511 32.5073 18.1264 31.9573L13.8408 24.6993L19.0251 21.6382L17.1885 18.5276C16.0519 16.6026 15.7265 14.305 16.284 12.1402C16.8414 9.97535 18.236 8.12062 20.161 6.98403L23.2715 5.14737ZM6.58799 13.5999C7.8316 12.8643 9.23376 12.4382 10.6764 12.3575C12.1191 12.2769 13.56 12.544 14.8778 13.1365C14.6324 15.2231 15.08 17.3326 16.1516 19.1398L16.7638 20.1767L16.2454 20.4828C14.183 21.7006 11.7212 22.0492 9.40176 21.4519C7.08229 20.8546 5.09509 19.3604 3.87731 17.298L2.95898 15.7427L6.58799 13.5999Z" fill="#0A4182"/>
</g>
<path fill-rule="evenodd" clip-rule="evenodd" d="M45.4082 9.91833L41.0084 11.2405L43.9386 18.9039C45.7044 18.4714 47.5687 18.728 49.152 19.6216C50.7352 20.5152 51.9184 21.9786 52.4607 23.7139C53.003 25.4491 52.8636 27.3258 52.0709 28.9619C51.2782 30.598 49.8918 31.8706 48.1939 32.5204C46.496 33.1703 44.6142 33.1487 42.9317 32.4601C41.2492 31.7714 39.8923 30.4674 39.1374 28.8135C38.3824 27.1597 38.2861 25.2803 38.8681 23.5579C39.45 21.8356 40.6665 20.3997 42.2698 19.5427L40.7975 15.6922L35.7214 26.2358C35.6482 26.3873 35.5337 26.515 35.3912 26.6043C35.2486 26.6936 35.0838 26.7409 34.9155 26.7406H31.2867C31.0573 28.5428 30.1504 30.19 28.7502 31.3476C27.3499 32.5051 25.5615 33.086 23.7483 32.9722C21.9352 32.8585 20.2334 32.0586 18.9888 30.7351C17.7442 29.4116 17.0503 27.6639 17.048 25.8472C17.0467 24.0283 17.7389 22.2772 18.9837 20.9509C20.2285 19.6246 21.9321 18.8228 23.7475 18.7089C25.5629 18.595 27.3534 19.1776 28.7542 20.3379C30.155 21.4982 31.0606 23.149 31.2867 24.9538H33.5201L29.1604 12.7468C29.1261 12.6504 29.1085 12.5489 29.1086 12.4466H27.7685C27.5316 12.4466 27.3044 12.3525 27.1368 12.1849C26.9693 12.0174 26.8752 11.7901 26.8752 11.5532C26.8752 11.3163 26.9693 11.089 27.1368 10.9215C27.3044 10.754 27.5316 10.6598 27.7685 10.6598H31.7887C32.0257 10.6598 32.2529 10.754 32.4204 10.9215C32.588 11.089 32.6821 11.3163 32.6821 11.5532C32.6821 11.7901 32.588 12.0174 32.4204 12.1849C32.2529 12.3525 32.0257 12.4466 31.7887 12.4466H30.9507L32.5963 17.0537L39.8568 13.2328L38.9947 10.9788C38.9508 10.864 38.9311 10.7414 38.9367 10.6186C38.9424 10.4959 38.9733 10.3756 39.0276 10.2654C39.0818 10.1551 39.1582 10.0572 39.252 9.97782C39.3458 9.89844 39.455 9.83926 39.5727 9.80398L44.8945 8.20752L45.4082 9.91833ZM33.2029 18.7538L34.9647 23.6852L38.7437 15.8378L33.2029 18.7538ZM44.8016 26.1662L42.9139 21.2285C41.7564 21.9114 40.8976 23.0043 40.5078 24.2906C40.118 25.5768 40.2256 26.9626 40.8094 28.1732C41.3931 29.3839 42.4104 30.331 43.6595 30.827C44.9087 31.323 46.2986 31.3316 47.5538 30.8512C48.809 30.3707 49.8379 29.4363 50.4367 28.233C51.0354 27.0297 51.1602 25.6454 50.7865 24.3544C50.4127 23.0634 49.5675 21.9599 48.4185 21.2626C47.2695 20.5654 45.9005 20.3252 44.5828 20.5897L46.4705 25.5283C46.5512 25.7487 46.5419 25.9921 46.4446 26.2058C46.3474 26.4195 46.1699 26.5862 45.9506 26.6701C45.7313 26.7539 45.4878 26.748 45.2728 26.6537C45.0578 26.5594 44.8885 26.3843 44.8016 26.1662ZM29.4811 24.9538H24.195C23.9581 24.9538 23.7309 25.048 23.5633 25.2155C23.3958 25.383 23.3017 25.6103 23.3017 25.8472C23.3017 26.0842 23.3958 26.3114 23.5633 26.4789C23.7309 26.6465 23.9581 26.7406 24.195 26.7406H29.4811C29.2536 28.0628 28.5385 29.2517 27.4772 30.0726C26.4159 30.8934 25.0854 31.2865 23.7484 31.1743C22.4114 31.0621 21.1651 30.4528 20.2554 29.4666C19.3457 28.4803 18.8388 27.1889 18.8348 25.8472C18.8336 24.5023 19.3379 23.2061 20.2478 22.2158C21.1577 21.2254 22.4066 20.6133 23.7468 20.5008C25.087 20.3884 26.4205 20.7838 27.4827 21.6087C28.5449 22.4335 29.2582 23.6276 29.4811 24.9538Z" fill="#0A4182"/>
<path d="M15.673 35.8774C16.8616 35.8774 17.8016 36.1765 18.493 36.7747C19.1844 37.3651 19.5301 38.2118 19.5301 39.3149H17.0713C17.0713 38.8488 16.947 38.4798 16.6985 38.2079C16.4576 37.936 16.1119 37.8001 15.6614 37.8001C15.1409 37.8001 14.7563 37.9632 14.5077 38.2895C14.2669 38.6158 14.1465 39.0702 14.1465 39.6529V40.3987C14.1465 40.9735 14.2669 41.428 14.5077 41.762C14.7563 42.0883 15.1331 42.2514 15.6381 42.2514C16.1352 42.2514 16.512 42.1233 16.7684 41.8669C17.0247 41.6105 17.1529 41.2493 17.1529 40.7832H19.5301C19.5301 41.8785 19.1921 42.7175 18.5163 43.3002C17.8482 43.8828 16.9004 44.1741 15.673 44.1741C14.3058 44.1741 13.2687 43.8246 12.5617 43.1254C11.8626 42.4262 11.513 41.393 11.513 40.0258C11.513 38.6585 11.8626 37.6253 12.5617 36.9261C13.2687 36.227 14.3058 35.8774 15.673 35.8774ZM26.3681 36.0172C26.7721 36.0172 27.1411 36.1027 27.4751 36.2736C27.8169 36.4367 28.0849 36.6698 28.2792 36.9728C28.4811 37.2757 28.5821 37.6137 28.5821 37.9865C28.5821 38.9731 28.1354 39.5946 27.2421 39.851V39.8976C28.2597 40.1306 28.7686 40.7987 28.7686 41.9019C28.7686 42.3214 28.6637 42.6942 28.454 43.0205C28.252 43.339 27.9723 43.5876 27.615 43.7663C27.2576 43.945 26.8653 44.0343 26.438 44.0343H21.0312V36.0172H26.3681ZM23.6064 39.1402H25.3776C25.5485 39.1402 25.6884 39.0819 25.7971 38.9654C25.9137 38.8411 25.9719 38.6896 25.9719 38.5109V38.3944C25.9719 38.2235 25.9137 38.0798 25.7971 37.9632C25.6806 37.8389 25.5408 37.7768 25.3776 37.7768H23.6064V39.1402ZM23.6064 42.1699H25.5641C25.735 42.1699 25.8748 42.1116 25.9836 41.9951C26.1001 41.8708 26.1584 41.7193 26.1584 41.5406V41.4241C26.1584 41.2454 26.1001 41.0978 25.9836 40.9813C25.8748 40.857 25.735 40.7948 25.5641 40.7948H23.6064V42.1699ZM30.1298 37.1592V35.5861H32.4487V37.1592H30.1298ZM30.1298 44.0343V37.8817H32.4487V44.0343H30.1298ZM38.3276 37.8817H41.0311L38.7588 40.3637L41.0893 44.0343H38.4558L37.1624 41.9252L36.3583 42.7059V44.0343H34.0394V35.5744H36.3583V40.2355L38.3276 37.8817ZM44.7053 37.7418C45.8317 37.7418 46.6902 38.006 47.2806 38.5342C47.8787 39.0625 48.1778 39.8704 48.1778 40.958V41.3542H43.5633C43.5633 41.797 43.6605 42.131 43.8547 42.3563C44.0566 42.5816 44.3713 42.6942 44.7985 42.6942C45.187 42.6942 45.4705 42.6127 45.6492 42.4495C45.8356 42.2864 45.9288 42.0689 45.9288 41.797H48.1778C48.1778 42.5428 47.8943 43.1254 47.3272 43.5449C46.7601 43.9644 45.9327 44.1741 44.8451 44.1741C43.7032 44.1741 42.8176 43.91 42.1883 43.3817C41.5591 42.8457 41.2445 42.0378 41.2445 40.958C41.2445 39.9015 41.5513 39.1013 42.165 38.5575C42.7787 38.0137 43.6255 37.7418 44.7053 37.7418ZM44.7985 39.2217C44.0683 39.2217 43.6605 39.5674 43.575 40.2588H45.8356C45.8356 39.9403 45.7424 39.6878 45.556 39.5014C45.3773 39.3149 45.1248 39.2217 44.7985 39.2217ZM52.3319 37.7418C53.1554 37.7418 53.8507 37.905 54.4178 38.2312C54.9926 38.5498 55.2801 39.0469 55.2801 39.7228H53.1243C53.1243 39.4975 53.0233 39.3383 52.8213 39.245C52.6815 39.1673 52.5067 39.1285 52.297 39.1285C51.7376 39.1285 51.458 39.2606 51.458 39.5247C51.458 39.6723 51.5551 39.7772 51.7493 39.8393C51.9435 39.9015 52.262 39.9675 52.7048 40.0374C53.2486 40.1151 53.7031 40.2083 54.0682 40.3171C54.4333 40.4181 54.7518 40.6045 55.0237 40.8764C55.2956 41.1405 55.4315 41.5134 55.4315 41.9951C55.4315 42.7797 55.1363 43.339 54.5459 43.6731C53.9633 44.0071 53.1981 44.1741 52.2504 44.1741C51.7066 44.1741 51.1938 44.1003 50.7122 43.9527C50.2306 43.7974 49.8382 43.5604 49.5353 43.2419C49.2323 42.9234 49.0808 42.5194 49.0808 42.03H51.2366V42.0766C51.2443 42.3408 51.3531 42.5272 51.5628 42.636C51.7804 42.737 52.0095 42.7875 52.2504 42.7875C52.8951 42.7875 53.2175 42.636 53.2175 42.333C53.2175 42.1776 53.1165 42.065 52.9146 41.9951C52.7126 41.9252 52.3824 41.8514 51.9241 41.7737C51.3725 41.6805 50.9181 41.5795 50.5607 41.4707C50.2111 41.3619 49.9043 41.1794 49.6401 40.923C49.376 40.6589 49.244 40.2938 49.244 39.8277C49.244 39.0741 49.5275 38.5381 50.0946 38.2196C50.6695 37.9011 51.4152 37.7418 52.3319 37.7418Z" fill="#0A4182"/>
<defs>
<clipPath id="clip0_3_15">
<rect width="28.8987" height="14.4494" fill="white" transform="translate(9.53674e-06 14.6932) rotate(-30.5599)"/>
</clipPath>
</defs>
</svg>
