<?xml version="1.0" encoding="iso-8859-1"?>
<svg version="1.1" id="Capa_1" xmlns="http://www.w3.org/2000/svg" xmlns:xlink="http://www.w3.org/1999/xlink" x="0px" y="0px"
	 viewBox="0 0 296.673 296.673" style="enable-background:new 0 0 296.673 296.673;" xml:space="preserve">
<path d="M235.125,126.838c-2.248,0-4.465,0.129-6.651,0.365l-6.547-33.509c0.871-0.513,1.657-1.199,2.285-2.072l19.441-27.013
	l17.692,12.291c3.401,2.362,8.074,1.521,10.438-1.88c2.363-3.402,1.521-8.075-1.88-10.438l-23.75-16.5
	c-3.361-2.337-7.976-1.545-10.366,1.778l-17.638,24.507l-2.761-14.13c-0.794-4.064-4.723-6.724-8.799-5.922
	c-4.065,0.794-6.717,4.733-5.922,8.799l4.814,24.638l-68.424,44.747l-13.941-35.38l11.421-4.47c3.357-1.314,5.306-4.793,4.637-8.336
	c-0.669-3.544-3.765-6.071-7.37-6.071H94.597c-5.775,0-10.475,4.661-10.475,10.437c0,8.941,7.266,16.197,16.196,16.197
	c1.79,0,3.565-0.308,5.276-0.895c0.101-0.035,0.199-0.076,0.298-0.114l3.258-1.278l15.09,38.295l-14.289,9.344
	c-10.895-13.863-27.592-22.964-46.397-23.564c-17.593-0.554-34.054,6.14-46.219,18.699c-11.694,12.074-17.84,27.992-17.303,44.822
	c1.032,32.338,27.172,58.477,59.509,59.51c0.673,0.021,1.338,0.032,2.006,0.032c16.812,0,32.514-6.652,44.213-18.731
	c11.695-12.075,17.841-27.993,17.304-44.823c-0.205-6.418-1.413-12.586-3.448-18.368l90.008-58.861l4.237,21.685
	c-23.489,8.676-40.282,31.291-40.282,57.757c0,33.938,27.609,61.548,61.547,61.548c33.937,0,61.548-27.61,61.548-61.548
	S269.063,126.838,235.125,126.838z M103.073,186.81c0.363,11.369-3.785,22.119-11.68,30.27c-8.216,8.482-19.343,13-31.214,12.624
	c-21.822-0.696-39.461-18.336-40.157-40.158c-0.363-11.369,3.784-22.119,11.679-30.27c7.898-8.154,18.498-12.646,29.847-12.646
	c0.455,0,0.909,0.008,1.367,0.022c12.079,0.385,22.869,5.967,30.221,14.57l-16.038,10.488c-4.126-3.827-9.645-6.173-15.703-6.173
	c-12.745,0-23.113,10.368-23.113,23.113s10.368,23.114,23.113,23.114c12.01,0,21.906-9.208,23.008-20.935l17.72-11.588
	C102.662,181.693,102.991,184.221,103.073,186.81z M235.125,229.932c-22.909,0-41.547-18.639-41.547-41.548
	c0-16.716,9.929-31.149,24.194-37.735l3.774,19.314c-5.773,4.206-9.534,11.014-9.534,18.688c0,12.745,10.368,23.114,23.113,23.114
	s23.114-10.369,23.114-23.114c0-12.462-9.916-22.646-22.271-23.092l-3.638-18.617c0.925-0.062,1.854-0.104,2.794-0.104
	c22.909,0,41.548,18.638,41.548,41.547S258.034,229.932,235.125,229.932z"/>
</svg>
